PathFileType	4	(X/Y/Z)	D:\TRACE\spot_10-12-23\spot_body_motion_3_5-platform.trc
DataRate	CameraRate	NumFrames	NumMarkers	Units	OrigDataRate	OrigDataStartFrame	OrigNumFrames
100.00	100.00	      42	5	mm	100.00	876	      7000
Frame#	Time	Left_Front			Right_Front			Left_Aft			Right_Aft			Post			
		X1	Y1	Z1	X2	Y2	Z2	X3	Y3	Z3	X4	Y4	Z4	X5	Y5	Z5	

876	8.750	-788.03729	-24.46339	-647.97809	784.55280	-19.55981	-641.27069	-704.88824	26.17172	488.55142	712.20502	34.72945	574.60254	-5.00967	697.87585	-999.51440	
877	8.760	-788.01434	-24.45950	-647.97968	784.71820	-19.58063	-641.16534	-704.75940	26.09551	488.77399	712.24713	34.74243	574.59906	-4.99641	697.84644	-999.48853	
878	8.770	-787.96954	-24.47962	-647.96881	784.62140	-19.58285	-641.28156	-704.72064	26.09789	488.69287	712.27515	34.70411	574.57666	-4.94156	697.83575	-999.44647	
879	8.780	-787.99158	-24.47571	-647.92853	784.64325	-19.59406	-641.26929	-704.72418	26.12088	488.75122	712.24127	34.71349	574.60254	-4.92464	697.84344	-999.39417	
880	8.790	-787.94379	-24.49185	-647.93005	784.67236	-19.60074	-641.29279	-704.70392	26.09364	488.76071	712.28461	34.74738	574.60870	-4.89868	697.83435	-999.33057	
881	8.800	-787.89758	-24.46109	-647.92645	784.77032	-19.62563	-641.23474	-704.65814	26.05359	488.74097	712.30463	34.75524	574.62744	-4.85534	697.82758	-999.31458	
882	8.810	-787.82349	-24.46783	-647.96484	784.82544	-19.64787	-641.27399	-704.56158	26.04232	488.76572	712.33026	34.76741	574.61560	-4.79673	697.84381	-999.26563	
883	8.820	-787.89160	-24.44380	-647.89825	784.90100	-19.63844	-641.17578	-704.48962	26.01294	488.70016	712.38672	34.73854	574.61682	-4.76938	697.81372	-999.23853	
884	8.830	-787.76904	-24.45124	-647.90094	784.80542	-19.62362	-641.31024	-704.38629	25.98778	488.69705	712.44611	34.78452	574.62561	-4.72834	697.79651	-999.28058	
885	8.840	-787.67273	-24.50143	-647.98242	784.93634	-19.66503	-641.26331	-704.62024	26.19974	488.66312	712.50220	34.76951	574.62976	-4.66531	697.84833	-999.33398	
886	8.850	-787.59375	-24.48951	-647.96478	784.91254	-19.64734	-641.26923	-704.56390	26.16092	488.65454	712.50787	34.75737	574.61023	-4.61028	697.83331	-999.36401	
887	8.860	-787.57526	-24.43479	-647.94019	785.01642	-19.70441	-641.30182	-704.46942	26.14330	488.66660	712.57874	34.77916	574.60162	-4.55684	697.83057	-999.41241	
888	8.870	-787.58807	-24.50562	-647.91254	785.03528	-19.70024	-641.30835	-704.44574	26.14184	488.67993	712.65161	34.78546	574.60614	-4.51684	697.80670	-999.46155	
889	8.880	-787.52032	-24.42636	-647.93097	785.08502	-19.71904	-641.30981	-704.35815	26.10111	488.61212	712.68195	34.80597	574.62744	-4.47354	697.73889	-999.42743	
890	8.890	-787.55011	-24.40101	-647.88446	785.07379	-19.71823	-641.33698	-704.47565	26.30782	488.54437	712.80042	34.83549	574.62201	-4.38269	697.73212	-999.49872	
891	8.900	-787.37012	-24.46785	-647.98242	785.13647	-19.71705	-641.31372	-704.34259	26.14869	488.61710	712.82593	34.84885	574.61884	-4.26694	697.74762	-999.48059	
892	8.910	-787.27301	-24.55026	-648.03577	785.22559	-19.74858	-641.31201	-704.16174	26.06105	488.64377	712.93750	34.84859	574.62177	-4.24452	697.71924	-999.52673	
893	8.920	-787.08862	-24.58524	-648.09515	785.29401	-19.79775	-641.35266	-704.11438	26.10258	488.57126	713.09442	34.89753	574.61035	-4.16411	697.70160	-999.53748	
894	8.930	-786.88043	-24.75068	-648.15295	785.37787	-19.81731	-641.39563	-704.04926	26.13404	488.54669	713.18341	34.93127	574.60181	-4.03471	697.65350	-999.55280	
895	8.940	-786.79926	-24.70996	-648.18225	785.48077	-19.87229	-641.37976	-703.96106	26.14879	488.50299	713.32361	35.00836	574.59961	-3.96932	697.61340	-999.53143	
896	8.950	-786.73749	-24.71325	-648.14935	785.56598	-19.93844	-641.40601	-703.86481	26.16508	488.49115	713.41779	35.01205	574.59326	-3.96043	697.54529	-999.49878	
897	8.960	-786.40283	-24.94762	-648.26062	785.67242	-20.03651	-641.40625	-703.76923	26.18275	488.47287	713.54797	35.05938	574.57520	-3.74192	697.49878	-999.57953	
898	8.970	-786.19403	-25.02403	-648.28101	785.75989	-20.09883	-641.46497	-703.68768	26.20664	488.47534	713.79449	35.13424	574.55469	-3.61827	697.44568	-999.61127	
899	8.980	-786.02368	-25.13443	-648.29333	785.85437	-20.16659	-641.42804	-703.57397	26.21280	488.47229	713.95508	35.17576	574.54047	-3.48469	697.35168	-999.63104	
900	8.990	-785.90881	-25.17362	-648.36127	785.94623	-20.20444	-641.46130	-703.45020	26.28703	488.54385	714.06775	35.19587	574.51440	-3.39346	697.22174	-999.71149	
901	9.000	-785.81421	-25.20336	-648.34393	786.21613	-20.30923	-641.37134	-703.31635	26.33927	488.54996	714.13208	35.17305	574.50812	-3.28327	697.13916	-999.79749	
902	9.010	-785.93750	-25.05351	-648.31561	786.35858	-20.32040	-641.37415	-703.19403	26.39670	488.55969	714.22351	35.23633	574.48401	-3.14354	696.98907	-999.95972	
903	9.020	-785.87518	-25.04977	-648.30225	786.26227	-20.34439	-641.52521	-703.04523	26.46777	488.55310	714.31873	35.29676	574.45667	-3.02263	696.93872	-1000.12726	
904	9.030	-785.73407	-25.12331	-648.36603	786.41571	-20.35342	-641.53174	-702.92133	26.51498	488.52606	714.39093	35.33847	574.39490	-2.94844	696.91132	-1000.32642	
905	9.040	-785.68195	-25.13041	-648.40259	786.70331	-20.39680	-641.41577	-702.77576	26.61333	488.53430	714.47101	35.35208	574.39343	-2.79741	696.80511	-1000.49060	
906	9.050	-785.61835	-25.10139	-648.41119	786.85852	-20.49443	-641.43237	-702.65503	26.67203	488.56082	714.51654	35.37142	574.39789	-2.65726	696.67255	-1000.61066	
907	9.060	-785.57184	-25.12181	-648.41449	787.01044	-20.56287	-641.41272	-702.56329	26.83780	488.31860	714.58514	35.40612	574.37085	-2.53542	696.52637	-1000.66992	
908	9.070	-785.51135	-25.15381	-648.44122	787.17816	-20.66781	-641.48547	-702.45850	26.86583	488.49380	714.65125	35.51374	574.33173	-2.40307	696.38940	-1000.75397	
909	9.080	-785.43372	-25.16240	-648.43768	787.21893	-20.78280	-641.65546	-702.29327	26.94817	488.45587	714.75970	35.62753	574.29987	-2.28387	696.27655	-1000.78943	
910	9.090	-785.19873	-25.38509	-648.46796	787.32538	-20.88764	-641.65051	-702.20593	27.09008	488.26468	714.95270	35.79510	574.23450	-2.21346	696.18042	-1000.90375	
911	9.100	-785.05371	-25.51956	-648.50757	787.45245	-20.97875	-641.66119	-702.01453	27.12181	488.19543	715.06030	35.89243	574.16852	-2.12302	695.99860	-1000.97235	
912	9.110	-784.90948	-25.67396	-648.48279	787.61847	-21.07604	-641.69354	-701.86310	27.18739	488.30902	715.25806	36.01264	574.14526	-2.02897	695.77997	-1001.12854	
913	9.120	-784.93195	-25.59052	-648.46906	787.79883	-21.23178	-641.63501	-701.73480	27.24390	488.21960	715.42804	36.13758	574.14526	-1.95526	695.66687	-1001.21124	
914	9.130	-784.58514	-25.84250	-648.45184	788.00537	-21.42003	-641.64807	-701.59491	27.34984	488.20294	715.65680	36.19936	574.11890	-1.72983	695.51025	-1001.37939	
915	9.140	-784.27960	-26.07572	-648.53320	788.23364	-21.55190	-641.64282	-701.37878	27.50410	488.16989	715.82385	36.28429	574.09589	-1.44784	695.28815	-1001.70563	
916	9.150	-784.11072	-26.27962	-648.48962	788.42468	-21.64660	-641.62537	-701.15509	27.54634	488.31839	716.09253	36.42293	574.08948	-1.28714	695.03583	-1002.01868	
917	9.160	-783.73511	-26.55385	-648.61102	788.47040	-21.79035	-641.68854	-701.08856	27.67723	487.98065	716.34357	36.55857	574.08752	-0.93438	694.70996	-1002.30939	
